<?xml version="1.0" encoding="utf-8"?>
<!-- Generator: Adobe Illustrator 21.0.0, SVG Export Plug-In . SVG Version: 6.00 Build 0)  -->
<svg version="1.1" id="Layer_1" xmlns="http://www.w3.org/2000/svg" xmlns:xlink="http://www.w3.org/1999/xlink" x="0px" y="0px"
	 viewBox="0 0 70.9 147.4" style="enable-background:new 0 0 70.9 147.4;" xml:space="preserve">
<style type="text/css">
	.st0{fill:none;stroke:#000000;stroke-width:1.5;stroke-miterlimit:10;}
</style>
<title>icon-cx-ux</title>
<g>
	<path class="st0" d="M40.9,118.9c-0.6,0.1-1,0.1-1.5,0.3c-2.5,0.4-5,0.7-7.6,0.8c-2.5,0.1-4.7,0-7.2-0.3c1.9,2.3,4.3,4.6,6.6,6.6
		c0.8,0,1.5-0.1,2.2,0c3.4-0.1,6.9-0.6,10.2-1.1c1.5-0.3,3.2-0.6,4.7-1C45.7,122.5,43.2,120.7,40.9,118.9z"/>
	<path class="st0" d="M19.5,86.3c-5.1-2.3-9.9-5.2-13.9-8.7c0.3,2.9,0.8,5.9,1.5,9c4.6,3,9.7,5.5,14.9,7.5c-0.3-0.7-0.6-1.2-0.8-1.9
		C20.6,90.1,19.9,88.1,19.5,86.3z"/>
	<path class="st0" d="M56,129.8c-4.7,2.2-10.1,4.1-15.9,5.4c2.8,1.7,5.7,3.2,8.7,4.4c5.8-1.9,11.2-4.1,16-7.2
		C61.8,131.9,59,130.9,56,129.8z"/>
	<path class="st0" d="M6.5,52.9c-0.6,2.9-1.1,5.8-1.2,8.8c3.6,4.4,7.5,8.4,11.9,11.9c-0.3-2.8-0.3-5.4-0.1-8
		C13,61.8,9.4,57.5,6.5,52.9z"/>
	<path class="st0" d="M27.7,104.4c-5.2-0.8-10.8-2.5-16.3-5.1c1.2,2.8,2.8,5.7,4.3,8.4c5.9,2.1,11.7,3.2,17.2,3.7
		C31.1,109.1,29.3,106.9,27.7,104.4z"/>
	<path class="st0" d="M31.1,28c-1.2-5.2-1.7-10.6-1.4-15.9v-0.1c-2.3,1.9-4.1,4.3-6.2,6.3c0.3,5.5,1.2,11.2,2.8,16.3
		C27.9,32.4,29.4,30,31.1,28z"/>
	<path class="st0" d="M18.8,52.9c0.6-2.6,1.5-5.2,2.5-7.7c-1.7-2.9-3-5.8-4.1-8.7c-0.7-1.9-1.4-4-1.9-6.2c-1.5,2.5-2.8,5.2-3.9,8
		c0,0.1,0,0.3,0.3,0.4C13.1,44,15.7,48.5,18.8,52.9z"/>
	<path class="st0" d="M41.4,6.8c-1.7,5.5-2.3,8.4-2.8,13.2c2.5-2.2,5.1-4.1,7.7-5.9c0.6-5,1.4-8,3-11.6C46.8,3.8,44,5.2,41.4,6.8z"
		/>
</g>
</svg>
