<?xml version="1.0" encoding="utf-8"?>
<!-- Generator: Adobe Illustrator 21.0.0, SVG Export Plug-In . SVG Version: 6.00 Build 0)  -->
<svg version="1.0" id="Capa_1" xmlns="http://www.w3.org/2000/svg" xmlns:xlink="http://www.w3.org/1999/xlink" x="0px" y="0px"
	 viewBox="0 0 210 40" style="enable-background:new 0 0 210 40;" xml:space="preserve">
<style type="text/css">
	.st0{fill:#FFFFFF;}
</style>
<g>
	<path class="st0" d="M22.3,36.6c0.8,0.1,1.6,0.1,2.4,0.1c0,0,0.1,0,0.1,0c0.5-0.2,1-0.3,1.4-0.5c4.3-1.9,4.6-10.7,1-16.3
		c-4-6.2-12.1-7.7-15.9-4.4c-0.5,0.4-0.9,1-1.3,1.5c-0.6,1.6-0.9,3.3-0.9,5C9.3,29.5,15,35.7,22.3,36.6z"/>
	<path class="st0" d="M24,4.5c9.6,0,17.5,7.8,17.5,17.5S33.6,39.5,24,39.5S6.5,31.6,6.5,22S14.4,4.5,24,4.5 M24,3
		C13.5,3,5,11.5,5,22c0,10.5,8.5,19,19,19s19-8.5,19-19C43,11.5,34.5,3,24,3L24,3z"/>
	<path class="st0" d="M24,7.3c-3.1,0-6,1-8.4,2.6c0.7-0.1,1.5-0.2,2.3-0.2c0.1,0,0.1,0,0.2,0c5.1,0,11.3,2.8,12.8,9.2
		c1.1,4.5,3.4,4.7,5.4,4.3c1-0.2,1.9-1.5,2.1-3.2c0-0.1,0-0.2,0-0.3C37.4,12.7,31.3,7.3,24,7.3z"/>
	<g>
		<g>
			<path class="st0" d="M67.8,33.3H55.6l-1.6,3.1h-6.4l9.8-18.4h8.7l9.7,18.4h-6.4L67.8,33.3z M62.3,22.2h-1.1l-3.6,7h8.2L62.3,22.2
				z"/>
			<path class="st0" d="M81.4,30.3c0,1.1,0.1,1.5,0.6,1.7c0.5,0.3,1.1,0.4,5.1,0.4c6,0,6,0,6-1.6c0-1.1-0.4-1.4-2.2-1.4l-4.4-0.2
				l-3-0.1L82,29c-4.6-0.1-5.8-1.3-5.8-5.4c0-3.5,1-5.1,3.5-5.6c1.1-0.2,3.6-0.3,8-0.3c5.4,0,7.3,0.2,8.6,1.1
				c1.1,0.7,1.5,1.9,1.5,4.1c0,0.1,0,0.5,0,0.9h-5.4c-0.1-1-0.1-1.3-0.6-1.5c-0.5-0.3-1.2-0.3-5.1-0.3c-4.8,0-5.1,0.1-5.1,1.5
				c0,0.7,0.2,1.1,0.8,1.2c0.5,0.1,2,0.2,5.9,0.3c6.1,0.2,7.3,0.3,8.5,1.1c1.3,0.8,1.7,2.1,1.7,4.6c0,3.2-0.8,4.8-2.7,5.5
				c-1.1,0.4-3.4,0.6-8.9,0.6c-5.7,0-8-0.2-9.3-1.1c-1.3-0.8-1.7-1.9-1.7-4.4v-0.9H81.4z"/>
			<path class="st0" d="M106.4,17.9v18.4h-5.9V17.9H106.4z"/>
			<path class="st0" d="M134.6,36.4h-9.8l-9.7-13.8h-0.6l0.1,13.8H109V17.9h9.8l9.7,13.7h0.6l-0.1-13.7h5.7V36.4"/>
			<path class="st0" d="M158.2,17.9v4.7H150v13.7h-5.9V22.6h-8.2v-4.7H158.2z"/>
			<path class="st0" d="M179.9,17.9v4.3H165V25h14.1V29H165V32h15v4.4h-20.5V17.9H179.9z"/>
			<path class="st0" d="M204.9,29.3c0,1.1,0.1,1.5,0.1,1.7c0,3-0.8,4.3-2.8,5c-1.5,0.5-3.5,0.6-7.6,0.6c-7.2,0-9.5-0.2-11-1.1
				c-1.2-0.7-1.8-1.7-2-3.6c-0.1-0.8-0.1-2.4-0.1-4.7c0-4.1,0.1-5.6,0.5-6.7c1-2.5,3-3,12.7-3c4.9,0,6.6,0.2,7.9,0.9
				c1.6,0.8,2.1,2.2,2.1,5.1v0.9H199c-0.1-1.2-0.1-1.5-0.4-1.7c-0.4-0.4-2-0.5-5.6-0.5c-3.5,0-4.5,0.1-5.1,0.6
				c-0.7,0.6-0.9,1.6-0.9,4.4c0,4.7,0.1,4.8,6,4.8c6.2,0,6.2,0,6.3-2.8H204.9z"/>
		</g>
	</g>
</g>
</svg>
